<svg xmlns="http://www.w3.org/2000/svg" xmlns:xlink="http://www.w3.org/1999/xlink" version="1.1" x="0px" y="0px" viewBox="0 0 100 125" enable-background="new 0 0 100 100" xml:space="preserve"><g><path fill="none" d="M58.4,61.1c-1-0.9-2.1-1.6-3.2-2c-1.2-0.4-2.8-0.9-4.8-1.5V47.6c2.1,0.7,3.4,2.1,3.9,4   c0.4,1.7,1.5,2.6,3.1,2.6c0.8,0,1.6-0.3,2.1-0.9c0.6-0.6,0.9-1.2,0.9-2.1c0-0.7-0.2-1.5-0.6-2.4c-0.3-0.9-0.9-1.7-1.7-2.6   c-0.9-1.1-2-1.8-3.2-2.4c-1.2-0.6-2.7-0.9-4.5-1.1v-2.6c0-1.3-0.6-2-1.6-2s-1.5,0.7-1.5,2.1v2.6c-3.4,0.3-6,1.4-7.7,3.1   c-1.7,1.8-2.6,4-2.6,6.9c0,2.1,0.4,3.9,1.3,5.2c0.9,1.3,2.1,2.4,3.6,3.1s3.3,1.4,5.5,2v11.3c-1.1-0.3-1.9-0.7-2.6-1.3   c-0.7-0.6-1.2-1.2-1.5-1.9c-0.3-0.7-0.7-1.7-1.2-3.1c-0.2-0.6-0.6-1.1-1.1-1.4c-0.5-0.3-1.1-0.5-1.8-0.5c-0.9,0-1.7,0.3-2.2,0.9   c-0.6,0.6-0.9,1.3-0.9,2.1c0,1.1,0.2,2.1,0.7,3.2c0.4,1.1,1.1,2.1,2.1,3.1c1,1.1,2.1,1.9,3.6,2.6c1.4,0.7,3.1,1.1,5,1.3V86   c0,0.7,0.1,1.3,0.3,1.7s0.7,0.5,1.2,0.5c0.7,0,1.1-0.2,1.2-0.7s0.2-1.1,0.2-2.1v-6c2.3-0.2,4.3-0.7,6-1.8c1.7-1.1,3-2.4,3.8-4   c0.9-1.7,1.3-3.4,1.3-5.2c0-1.5-0.2-2.8-0.8-4S59.3,62,58.4,61.1z M47.3,56.8c-1.4-0.6-2.5-1.2-3.2-1.8c-0.7-0.7-1.1-1.7-1.1-2.9   c0-1.3,0.4-2.3,1.2-3c0.7-0.7,1.8-1.2,3.1-1.6V56.8z M54.2,72.6c-0.9,1-2.1,1.7-3.8,2V64c1.7,0.5,2.9,1.2,3.8,1.9   c0.9,0.7,1.3,1.8,1.3,3.2C55.5,70.4,55.1,71.6,54.2,72.6z"/><path d="M50.4,64v10.6c1.7-0.3,2.9-1,3.8-2c0.9-1,1.3-2.1,1.3-3.5c0-1.4-0.4-2.5-1.3-3.2C53.3,65.2,52.1,64.5,50.4,64z"/><path d="M43,52.1c0,1.2,0.3,2.2,1.1,2.9c0.7,0.7,1.8,1.2,3.2,1.8v-9.3c-1.3,0.4-2.4,0.9-3.1,1.6C43.4,49.8,43,50.8,43,52.1z"/><path d="M88.2,73.1c-3.9-26.4-23.2-40.9-23.2-40.9H50H35.1c0,0-19.4,14.5-23.2,40.9c0,0-5.1,17.9,15.5,20.3c0,0,14.3,0.7,20.3,0.7   v0h4.5v0c5.8,0.1,20.6-0.7,20.6-0.7C93.3,90.9,88.2,73.1,88.2,73.1z M60.2,73.6c-0.8,1.6-2.1,2.9-3.8,4c-1.7,1.1-3.6,1.7-6,1.8v6   c0,1-0.1,1.7-0.2,2.1s-0.6,0.7-1.2,0.7c-0.6,0-1-0.2-1.2-0.5s-0.3-0.9-0.3-1.7v-6.5c-1.9-0.2-3.6-0.7-5-1.3   c-1.4-0.7-2.6-1.5-3.6-2.6c-1-1.1-1.7-2.1-2.1-3.1c-0.4-1.1-0.7-2.1-0.7-3.2c0-0.7,0.3-1.5,0.9-2.1c0.6-0.6,1.3-0.9,2.2-0.9   c0.7,0,1.3,0.2,1.8,0.5c0.5,0.3,0.8,0.8,1.1,1.4c0.4,1.3,0.8,2.3,1.2,3.1c0.3,0.7,0.8,1.3,1.5,1.9c0.7,0.6,1.5,1,2.6,1.3V63.1   c-2.1-0.6-4-1.2-5.5-2s-2.6-1.8-3.6-3.1c-0.9-1.3-1.3-3.1-1.3-5.2c0-2.8,0.9-5,2.6-6.9c1.7-1.7,4.3-2.8,7.7-3.1v-2.6   c0-1.3,0.5-2.1,1.5-2.1s1.6,0.7,1.6,2v2.6c1.7,0.2,3.2,0.5,4.5,1.1c1.2,0.6,2.3,1.3,3.2,2.4c0.7,0.8,1.3,1.7,1.7,2.6   c0.3,0.9,0.6,1.7,0.6,2.4c0,0.8-0.3,1.5-0.9,2.1c-0.6,0.6-1.3,0.9-2.1,0.9c-1.6,0-2.6-0.8-3.1-2.6c-0.5-2-1.8-3.4-3.9-4v10.1   c2,0.6,3.6,1.1,4.8,1.5c1.2,0.4,2.2,1.1,3.2,2c1,0.9,1.7,2,2.3,3.2s0.8,2.6,0.8,4C61.5,70.2,61.1,71.9,60.2,73.6z"/><path d="M63.6,25.5H36.4c-1.2,0-2.1,1-2.1,2.1c0,1.2,1,2.1,2.1,2.1h27.2c1.2,0,2.1-1,2.1-2.1C65.8,26.5,64.8,25.5,63.6,25.5z"/><path d="M34.2,22.7l1.2,0.8h29.2c0.7-0.3,1.1-0.6,1.1-0.6s8-7.1,8.3-12.8c0,0,0-8-14.7-1.4l-6.7,2.9c0,0-2.2,1.2-4.4,0.2   c0,0-14.2-6.5-16.5-5.8c0,0-7.4-0.1-5,7.2C26.6,13.1,29.7,19.6,34.2,22.7z"/></g></svg>
