<svg xmlns="http://www.w3.org/2000/svg" xmlns:xlink="http://www.w3.org/1999/xlink" version="1.1" x="0px" y="0px" viewBox="0 0 100 125" enable-background="new 0 0 100 100" xml:space="preserve"><g><path fill="none" d="M67.1,77.8c-0.1-0.2-0.2-0.3-0.3-0.4c-0.1-0.1-0.2-0.1-0.4-0.1c-0.3,0-0.8,0.3-1.4,0.7c-0.6,0.5-1.3,1-2.3,1.5   c-1,0.6-2.1,1.1-3.5,1.5c-1.4,0.5-3,0.7-4.8,0.7c-2.2,0-4.1-0.3-5.8-1.1c-1.7-0.8-3.1-1.9-4.3-3.4c-1.2-1.5-2.1-3.4-2.7-5.6   c0-0.1,0-0.1,0-0.2H57l1.7-3.7H40.9c-0.1-1.2-0.2-2.5-0.2-3.8c0-1.2,0.1-2.4,0.2-3.5h15.9l1.7-3.7H41.4c0-0.1,0.1-0.3,0.1-0.5   c0.6-2.2,1.5-4.1,2.7-5.7c1.2-1.6,2.6-2.8,4.3-3.6c1.6-0.8,3.5-1.2,5.5-1.2c1.9,0,3.5,0.2,4.8,0.7c1.3,0.4,2.5,0.9,3.4,1.5   c1,0.5,1.7,1,2.3,1.5s1.1,0.7,1.4,0.7c0.2,0,0.4-0.1,0.5-0.2c0.1-0.1,0.2-0.3,0.3-0.5c0.1-0.2,0.2-0.5,0.2-0.8   c0.1-0.3,0.1-0.7,0.1-1.2c0-0.4-0.1-0.8-0.1-1.1c0-0.3,0-0.6-0.1-0.8c0-0.2-0.1-0.4-0.2-0.6c-0.1-0.1-0.3-0.4-0.6-0.7   s-0.9-0.7-1.7-1.2c-0.8-0.5-1.7-0.9-2.8-1.3c-1-0.3-2.2-0.6-3.4-0.9c-1.2-0.3-2.5-0.4-3.8-0.4c-2.9,0-5.7,0.5-8.1,1.6   c-2.4,1.1-4.5,2.6-6.3,4.7c-1.8,2-3.1,4.5-4.1,7.5c-0.3,0.8-0.5,1.6-0.7,2.5h-7.3l-1.7,3.7h8.4c-0.1,1.3-0.2,2.6-0.2,3.9   c0,1.2,0.1,2.3,0.2,3.4h-6.7l-1.7,3.7H35c0.2,0.9,0.4,1.8,0.7,2.6c0.9,2.8,2.2,5.2,3.9,7.1c1.7,2,3.7,3.4,6.1,4.4s5,1.5,8,1.5   c1.7,0,3.3-0.1,4.7-0.5c1.4-0.4,2.7-0.7,3.8-1.2s2-0.9,2.8-1.4s1.3-0.9,1.5-1.1c0.2-0.2,0.4-0.4,0.5-0.6c0.1-0.2,0.2-0.4,0.2-0.6   s0.1-0.4,0.1-0.7c0-0.2,0.1-0.6,0.1-1c0-0.5,0-1-0.1-1.3C67.2,78.3,67.2,78,67.1,77.8z"/><path d="M88.2,73.1c-3.9-26.4-23.2-40.9-23.2-40.9H50H35.1c0,0-19.4,14.5-23.2,40.9c0,0-5.1,17.9,15.5,20.3c0,0,14.3,0.7,20.3,0.7   v0h4.5v0c5.8,0.1,20.6-0.7,20.6-0.7C93.3,90.9,88.2,73.1,88.2,73.1z M67.3,80.9c0,0.3-0.1,0.5-0.1,0.7S67.1,82,67,82.2   c-0.1,0.2-0.3,0.4-0.5,0.6c-0.2,0.2-0.7,0.6-1.5,1.1s-1.7,0.9-2.8,1.4s-2.4,0.8-3.8,1.2c-1.4,0.4-3,0.5-4.7,0.5c-3,0-5.6-0.5-8-1.5   s-4.4-2.4-6.1-4.4c-1.7-1.9-3-4.3-3.9-7.1c-0.3-0.8-0.5-1.7-0.7-2.6h-8.9l1.7-3.7h6.7c-0.1-1.1-0.2-2.2-0.2-3.4   c0-1.3,0.1-2.6,0.2-3.9h-8.4l1.7-3.7h7.3c0.2-0.9,0.4-1.7,0.7-2.5c1-3,2.3-5.5,4.1-7.5c1.8-2.1,3.9-3.6,6.3-4.7   c2.4-1.1,5.2-1.6,8.1-1.6c1.3,0,2.6,0.1,3.8,0.4c1.2,0.3,2.4,0.6,3.4,0.9c1.1,0.4,2,0.8,2.8,1.3c0.8,0.5,1.4,0.9,1.7,1.2   s0.5,0.6,0.6,0.7c0.1,0.2,0.2,0.4,0.2,0.6c0.1,0.2,0.1,0.5,0.1,0.8c0,0.3,0.1,0.7,0.1,1.1c0,0.5,0,0.9-0.1,1.2   c0,0.3-0.1,0.6-0.2,0.8c-0.1,0.2-0.2,0.4-0.3,0.5c-0.1,0.1-0.3,0.2-0.5,0.2c-0.3,0-0.8-0.2-1.4-0.7s-1.3-1-2.3-1.5   c-0.9-0.6-2.1-1.1-3.4-1.5c-1.3-0.5-2.9-0.7-4.8-0.7c-2,0-3.9,0.4-5.5,1.2c-1.7,0.8-3.1,2-4.3,3.6c-1.2,1.6-2.1,3.5-2.7,5.7   c0,0.2-0.1,0.4-0.1,0.5h17.1l-1.7,3.7H40.9c-0.1,1.1-0.2,2.3-0.2,3.5c0,1.3,0.1,2.6,0.2,3.8h17.8L57,71.4H41.6c0,0.1,0,0.1,0,0.2   c0.6,2.2,1.5,4.1,2.7,5.6c1.2,1.5,2.6,2.6,4.3,3.4c1.7,0.8,3.6,1.1,5.8,1.1c1.8,0,3.4-0.2,4.8-0.7c1.4-0.4,2.5-0.9,3.5-1.5   c1-0.5,1.7-1,2.3-1.5c0.6-0.4,1.1-0.7,1.4-0.7c0.2,0,0.3,0,0.4,0.1c0.1,0.1,0.2,0.2,0.3,0.4c0.1,0.2,0.1,0.5,0.2,0.8   c0.1,0.3,0.1,0.8,0.1,1.3C67.4,80.3,67.3,80.7,67.3,80.9z"/><path d="M63.6,25.5H36.4c-1.2,0-2.1,1-2.1,2.1c0,1.2,1,2.1,2.1,2.1h27.2c1.2,0,2.1-1,2.1-2.1C65.8,26.5,64.8,25.5,63.6,25.5z"/><path d="M34.2,22.7l1.2,0.8h29.2c0.7-0.3,1.1-0.6,1.1-0.6s8-7.1,8.3-12.8c0,0,0-8-14.7-1.4l-6.7,2.9c0,0-2.2,1.2-4.4,0.2   c0,0-14.2-6.5-16.5-5.8c0,0-7.4-0.1-5,7.2C26.6,13.1,29.7,19.6,34.2,22.7z"/></g></svg>
