<svg xmlns="http://www.w3.org/2000/svg" xmlns:xlink="http://www.w3.org/1999/xlink" version="1.1" x="0px" y="0px" viewBox="0 0 100 125" enable-background="new 0 0 100 100" xml:space="preserve"><g><path fill="none" d="M59.1,49.1c-1.3-1.6-2.9-2.6-4.9-3.1c-1.4-0.3-4.1-0.5-8.2-0.5h-7v8h-2.9l-1.1,3h4v24.3h3.5V64.4H45   c4.4,0,7.4-0.2,8.9-0.5c2.2-0.5,3.9-1.6,5.2-3.1c1-1.2,1.6-2.6,1.8-4.3h2.9l1.2-3.1h-4.1C60.7,51.7,60.1,50.2,59.1,49.1z    M42.5,48.9h6.2c2.4,0,4.1,0.2,5.1,0.6c1,0.4,1.9,1.1,2.5,2.1c0.3,0.5,0.6,1.2,0.8,1.8H42.5V48.9z M56.4,58.2   c-0.6,1-1.5,1.7-2.7,2.1c-1.1,0.4-2.9,0.7-5.3,0.7l-5.9-0.1v-4.5h14.7C57,57,56.8,57.7,56.4,58.2z"/><path d="M42.5,60.9l5.9,0.1c2.5,0,4.2-0.3,5.3-0.7c1.2-0.4,2-1.2,2.7-2.1c0.3-0.5,0.6-1.2,0.8-1.8H42.5V60.9z"/><path d="M56.3,51.7c-0.6-1-1.5-1.7-2.5-2.1c-1-0.4-2.7-0.6-5.1-0.6h-6.2v4.5h14.6C57,52.8,56.7,52.2,56.3,51.7z"/><path d="M88.2,73.1c-3.9-26.4-23.2-40.9-23.2-40.9H50H35.1c0,0-19.4,14.5-23.2,40.9c0,0-5.1,17.9,15.5,20.3c0,0,14.3,0.7,20.3,0.7   v0h4.5v0c5.8,0.1,20.6-0.7,20.6-0.7C93.3,90.9,88.2,73.1,88.2,73.1z M63.8,56.5h-2.9c-0.2,1.7-0.8,3.1-1.8,4.3   c-1.3,1.5-3,2.5-5.2,3.1c-1.6,0.3-4.6,0.5-8.9,0.5h-2.5v16.4H39V56.4h-4l1.1-3H39v-8h7c4.1,0,6.8,0.2,8.2,0.5   c2,0.5,3.6,1.5,4.9,3.1c1,1.2,1.6,2.7,1.8,4.4H65L63.8,56.5z"/><path d="M63.6,25.5H36.4c-1.2,0-2.1,1-2.1,2.1c0,1.2,1,2.1,2.1,2.1h27.2c1.2,0,2.1-1,2.1-2.1C65.8,26.5,64.8,25.5,63.6,25.5z"/><path d="M34.2,22.7l1.2,0.8h29.2c0.7-0.3,1.1-0.6,1.1-0.6s8-7.1,8.3-12.8c0,0,0-8-14.7-1.4l-6.7,2.9c0,0-2.2,1.2-4.4,0.2   c0,0-14.2-6.5-16.5-5.8c0,0-7.4-0.1-5,7.2C26.6,13.1,29.7,19.6,34.2,22.7z"/></g></svg>
